Coordinates
version=1
nRows=13
nColumns=63
inDegrees=yes

Units are S.I. units (second, meters, Newtons, ...)
If the header above contains a line with 'inDegrees', this indicates whether rotational values are in degrees (yes) or radians (no).

endheader
time	pelvis_tilt	pelvis_list	pelvis_rotation	pelvis_tx	pelvis_ty	pelvis_tz	hip_flexion_r	hip_adduction_r	hip_rotation_r	knee_angle_r	knee_angle_r_beta	ankle_angle_r	subtalar_angle_r	mtp_angle_r	hip_flexion_l	hip_adduction_l	hip_rotation_l	knee_angle_l	knee_angle_l_beta	ankle_angle_l	subtalar_angle_l	mtp_angle_l	L5_S1_Flex_Ext	L5_S1_Lat_Bending	L5_S1_axial_rotation	L4_L5_Flex_Ext	L4_L5_Lat_Bending	L4_L5_axial_rotation	L3_L4_Flex_Ext	L3_L4_Lat_Bending	L3_L4_axial_rotation	L2_L3_Flex_Ext	L2_L3_Lat_Bending	L2_L3_axial_rotation	L1_L2_Flex_Ext	L1_L2_Lat_Bending	L1_L2_axial_rotation	L1_T12_Flex_Ext	L1_T12_Lat_Bending	L1_T12_axial_rotation	Abs_r3	Abs_r2	Abs_r1	Abs_t1	Abs_t2	neck_flexion	neck_bending	neck_rotation	arm_flex_r	arm_add_r	arm_rot_r	elbow_flex_r	pro_sup_r	wrist_flex_r	wrist_dev_r	arm_flex_l	arm_add_l	arm_rot_l	elbow_flex_l	pro_sup_l	wrist_flex_l	wrist_dev_l
0.000000	2.264304	-5.677895	87.399467	0.217729	0.716127	0.777843	5.087214	1.953640	-13.420717	9.015488	0.157350	25.710758	18.243083	0.000000	6.924164	-3.028986	-3.107955	8.355726	0.145835	26.651366	-0.440014	0.000000	0.343294	0.453468	0.792196	0.637532	0.603112	0.841708	0.563998	1.102562	0.841708	0.392351	1.102562	0.693172	0.318783	0.924712	0.643659	0.196158	0.702422	0.594147	2.452118	5.129721	4.405958	0.000000	0.000000	27.753660	-2.198726	-2.308131	24.379935	-3.952676	73.435397	29.927895	27.414334	-5.714092	7.800454	20.821330	-2.187667	70.292208	24.776010	42.731506	-9.496291	-12.044870
0.021277	1.798232	-5.616019	86.559672	0.217441	0.716176	0.778641	5.715320	1.300133	-13.057722	10.030333	0.175062	26.500990	18.121558	0.000000	6.504288	-2.324401	-1.640525	7.610875	0.132835	25.280418	-4.162656	0.000000	0.334500	0.417484	0.990376	0.621200	0.555254	1.052275	0.549550	1.015070	1.052275	0.382300	1.015070	0.866579	0.310617	0.851333	0.804681	0.191133	0.646683	0.742782	2.389300	4.722662	5.508176	0.000000	0.000000	27.606811	-2.649870	-3.198391	25.349212	-4.176157	76.468145	31.073183	34.253579	-2.715012	8.895418	23.373488	-2.124354	72.854025	26.945193	55.543053	-8.564303	-7.350550
0.042553	1.403529	-5.545736	85.928852	0.217240	0.716239	0.779176	6.153965	0.763019	-12.812885	10.770330	0.187978	27.126066	18.034210	0.000000	6.190721	-1.765233	-0.702112	7.134709	0.124524	24.307148	-6.757637	0.000000	0.326730	0.382944	1.133154	0.606771	0.509316	1.203977	0.536785	0.931091	1.203977	0.373420	0.931091	0.991510	0.303402	0.780900	0.920688	0.186694	0.593181	0.849866	2.333802	4.331944	6.302265	0.000000	0.000000	27.473462	-2.963193	-3.998679	26.045693	-4.505670	78.990696	32.199622	40.245740	-0.324646	9.719940	25.293734	-2.106411	74.964036	28.845420	65.759181	-7.535127	-3.431090
0.063830	1.076564	-5.467790	85.487735	0.217113	0.716313	0.779474	6.419842	0.334963	-12.670392	11.259007	0.196507	27.598729	17.972919	0.000000	5.972141	-1.340080	-0.233600	6.899233	0.120414	23.690359	-8.343417	0.000000	0.319893	0.350263	1.225732	0.594074	0.465850	1.302340	0.525553	0.851630	1.302340	0.365606	0.851630	1.072515	0.297053	0.714257	0.995907	0.182787	0.542558	0.919299	2.284965	3.962247	6.817153	0.000000	0.000000	27.352016	-3.152783	-4.703807	26.494507	-4.922492	81.041530	33.294186	45.454337	1.514435	10.291399	26.641726	-2.127531	76.658350	30.489825	73.595310	-6.433870	-0.226292
0.085106	0.813702	-5.382922	85.217046	0.217050	0.716397	0.779563	6.529645	0.008630	-12.614426	11.519892	0.201060	27.931722	17.929565	0.000000	5.837222	-1.037539	-0.175873	6.876449	0.120017	23.388852	-9.038454	0.000000	0.313897	0.319854	1.273310	0.582938	0.425406	1.352892	0.515701	0.777692	1.352892	0.358753	0.777692	1.114146	0.291485	0.652246	1.034564	0.179361	0.495454	0.954983	2.242135	3.618250	7.081769	0.000000	0.000000	27.240876	-3.232728	-5.308585	26.720782	-5.407902	82.659125	34.343852	49.942889	2.859661	10.627169	27.477122	-2.181412	77.973075	31.891542	79.266860	-5.285638	2.324041
0.106383	0.611311	-5.291877	85.097514	0.217038	0.716488	0.779468	6.500068	-0.223314	-12.629173	11.576512	0.202048	28.137787	17.896028	0.000000	5.774639	-0.846209	-0.469817	7.038364	0.122843	23.361429	-8.961206	0.000000	0.308649	0.292130	1.281090	0.573193	0.388533	1.361159	0.507080	0.710285	1.361159	0.352755	0.710285	1.120954	0.286612	0.595712	1.040886	0.176362	0.452509	0.960818	2.204652	3.304634	7.125041	0.000000	0.000000	27.138445	-3.217116	-5.807823	26.749647	-5.943176	83.881961	35.335595	53.774914	3.768461	10.744630	27.859578	-2.261747	78.944320	33.063705	82.989251	-4.115537	4.280104
0.127660	0.465758	-5.195397	85.109863	0.217066	0.716585	0.779217	6.347804	-0.368204	-12.698819	11.452395	0.199882	28.229667	17.864188	0.000000	5.773069	-0.754687	-1.056316	7.356980	0.128404	23.566893	-8.230133	0.000000	0.304059	0.267506	1.254274	0.564667	0.355783	1.332666	0.499538	0.650413	1.332666	0.347509	0.650413	1.097490	0.282349	0.545498	1.019098	0.173739	0.414366	0.940706	2.171860	3.026078	6.975897	0.000000	0.000000	27.043126	-3.120034	-6.196332	26.606233	-6.509593	84.748516	36.256390	57.013931	4.298265	10.661156	27.848754	-2.362233	79.608193	34.019447	84.977902	-2.948673	5.702095
0.148936	0.373409	-5.094225	85.234822	0.217122	0.716685	0.778835	6.089547	-0.433373	-12.807546	11.171069	0.194972	28.220105	17.825926	0.000000	5.821186	-0.751573	-1.876254	7.804302	0.136211	23.964044	-6.963693	0.000000	0.300033	0.246394	1.198063	0.557190	0.327705	1.272942	0.492923	0.599083	1.272942	0.342907	0.599083	1.048305	0.278610	0.502447	0.973426	0.171439	0.381665	0.898547	2.143103	2.787262	6.663268	0.000000	0.000000	26.953321	-2.955570	-6.468923	26.315667	-7.088429	85.297270	37.093213	59.723459	4.506500	10.394125	27.504307	-2.476564	80.000803	34.771901	85.448234	-1.810153	6.650210
0.170213	0.330631	-4.989104	85.453117	0.217193	0.716786	0.778351	5.741990	-0.426157	-12.939541	10.756061	0.187729	28.121843	17.773121	0.000000	5.907666	-0.825463	-2.870516	8.352334	0.145776	24.511687	-5.280345	0.000000	0.296479	0.229210	1.117658	0.550592	0.304849	1.187512	0.487086	0.557301	1.187512	0.338846	0.557301	0.977951	0.275311	0.467405	0.908097	0.169408	0.355046	0.838244	2.117721	2.592867	6.216080	0.000000	0.000000	26.867434	-2.737812	-6.620406	25.903078	-7.660963	85.566701	37.833039	61.967018	4.450598	9.960914	26.885893	-2.598437	80.158258	35.334201	84.615665	-0.725082	7.184646
0.191489	0.333792	-4.880779	85.745474	0.217268	0.716887	0.777791	5.321827	-0.353889	-13.078989	10.230899	0.178563	27.947625	17.697653	0.000000	6.021185	-0.964955	-3.979986	8.973081	0.156610	25.168621	-3.298548	0.000000	0.293307	0.216366	1.018261	0.544700	0.287766	1.081903	0.481873	0.526071	1.081903	0.335220	0.526071	0.890979	0.272365	0.441213	0.827337	0.167595	0.335150	0.763696	2.095060	2.447571	5.663264	0.000000	0.000000	26.783867	-2.480847	-6.645591	25.393596	-8.208471	85.595290	38.462843	63.808126	4.187986	9.378899	26.053171	-2.721545	80.116668	35.719481	82.695616	0.281433	7.365599
0.212766	0.379258	-4.769990	86.092621	0.217336	0.716984	0.777181	4.845751	-0.223905	-13.210074	9.619111	0.167885	27.710192	17.591403	0.000000	6.150418	-1.158649	-5.145550	9.638546	0.168224	25.893650	-1.136761	0.000000	0.290423	0.208276	0.905073	0.539344	0.277007	0.961641	0.477136	0.506401	0.961641	0.331924	0.506401	0.791939	0.269687	0.424716	0.735372	0.165948	0.322619	0.678805	2.074461	2.356055	5.033747	0.000000	0.000000	26.701023	-2.198765	-6.539289	24.812350	-8.712231	85.421514	38.969601	65.310302	3.776095	8.665456	25.065799	-2.839586	79.912139	35.940873	79.903506	1.184285	7.253266
0.234043	0.494705	-4.644380	86.461518	0.217303	0.717100	0.776571	4.324954	-0.010321	-13.217435	8.916842	0.155628	27.404958	17.363498	0.000000	6.248320	-1.400613	-6.098833	10.272922	0.179296	26.569874	0.805502	0.000000	0.285921	0.212200	0.793031	0.530984	0.282226	0.842595	0.469740	0.515943	0.842595	0.326779	0.515943	0.693902	0.265507	0.432718	0.644337	0.163375	0.328698	0.594773	2.042307	2.400448	4.410598	0.000000	0.000000	26.600957	-1.917935	-6.101662	24.154786	-9.093607	85.051655	39.243645	66.550271	3.480485	8.037258	24.329636	-2.903192	80.298776	35.940531	78.116982	1.992740	7.234111
0.255319	0.655015	-4.526767	86.822567	0.217244	0.717186	0.775971	3.794414	0.255784	-13.174437	8.194634	0.143023	27.091325	17.071283	0.000000	6.338066	-1.680281	-6.910449	10.887845	0.190029	27.184530	2.506746	0.000000	0.283557	0.223279	0.681326	0.526594	0.296961	0.723908	0.465856	0.542880	0.723908	0.324078	0.542880	0.596160	0.263311	0.455310	0.553577	0.162025	0.345859	0.510994	2.025421	2.525773	3.789328	0.000000	0.000000	26.507480	-1.665992	-5.563193	23.555894	-9.381456	84.709858	39.342248	67.832651	3.241333	7.067403	23.441140	-2.943807	80.253012	35.812936	74.759395	2.668603	6.778897
